<svg width="18" height="9" viewBox="0 0 18 9" fill="none" xmlns="http://www.w3.org/2000/svg">
<path d="M10.5 5C10.5 6.46994 9.52308 7.5 8.5 7.5C7.47692 7.5 6.5 6.46994 6.5 5C6.5 3.53006 7.47692 2.5 8.5 2.5C9.52308 2.5 10.5 3.53006 10.5 5Z" stroke="#333333"/>
<rect x="6" width="1" height="8" rx="0.5" fill="#333333"/>
<rect width="1" height="8" rx="0.5" fill="#333333"/>
<path fill-rule="evenodd" clip-rule="evenodd" d="M4 5H5C5 3.34315 3.88071 2 2.5 2C1.11929 2 0 3.34315 0 5H1C1 3.71697 1.83454 3 2.5 3C3.16546 3 4 3.71697 4 5Z" fill="#333333"/>
<path d="M4 5H5V7.5C5 7.77614 4.77614 8 4.5 8V8C4.22386 8 4 7.77614 4 7.5V5Z" fill="#333333"/>
<rect x="12" width="1" height="8" rx="0.5" fill="#333333"/>
<rect x="12" y="4.62952" width="5.88063" height="1" rx="0.5" transform="rotate(-39.8357 12 4.62952)" fill="#333333"/>
<rect x="14.0866" y="3.38219" width="5.37453" height="1" rx="0.5" transform="rotate(51.935 14.0866 3.38219)" fill="#333333"/>
</svg>
